<svg width="86" height="86" viewBox="0 0 86 86" fill="none" xmlns="http://www.w3.org/2000/svg">
<path fill-rule="evenodd" clip-rule="evenodd" d="M85.8271 80.1602L5.82714 0.160156L0.119141 5.80016L80.1191 85.8002L85.7591 80.1202L85.8271 80.1602Z" fill="#0C0C0C"/>
<path fill-rule="evenodd" clip-rule="evenodd" d="M50.039 15H30.959V7H49.999C54.519 7 58.679 9.56 60.719 13.6L62.279 16.72C62.919 18.04 64.319 18.92 65.839 18.92H70.879C77.479 18.92 82.879 24.28 82.879 30.92V59.92H74.879V30.92C74.879 28.68 73.079 26.92 70.879 26.92H65.799C61.239 26.92 57.079 24.32 55.039 20.28L53.439 17.12C52.759 15.76 51.359 14.88 49.839 14.88L50.039 15ZM14.959 27C12.719 27 10.959 28.76 10.959 31V67C10.959 69.2 12.719 71 14.959 71H74.959V79H14.959C8.31898 79 2.95898 73.6 2.95898 67V31C2.95898 24.36 8.31898 19 14.959 19H22.959V27H14.959Z" fill="#0C0C0C"/>
<path fill-rule="evenodd" clip-rule="evenodd" d="M36.0352 37.2005C32.9552 39.3605 30.9952 42.9205 30.9952 46.9605C30.9952 53.5605 36.3552 58.9605 42.9952 58.9605C46.9952 58.9605 50.5552 56.9605 52.7512 53.9205L59.2312 58.5605C55.5912 63.6005 49.6712 66.8805 42.9512 66.8805C31.8712 66.8805 22.9512 57.9205 22.9512 46.8805C22.9512 40.1605 26.2312 34.2005 31.3112 30.5605L35.9512 37.0405L36.0352 37.2005Z" fill="#0C0C0C"/>
</svg>
