<svg width="25" height="24" viewBox="0 0 25 24" fill="none" xmlns="http://www.w3.org/2000/svg">
<path fill-rule="evenodd" clip-rule="evenodd" d="M22.1472 3.23767C22.431 3.47857 22.5575 3.85717 22.4755 4.22028L18.9755 19.7203C18.8991 20.0583 18.6532 20.3328 18.3255 20.4456C17.9978 20.5584 17.635 20.4934 17.3668 20.274L12.793 16.5318L10.8742 19.9857C10.6778 20.3392 10.2877 20.5396 9.88588 20.4935C9.48406 20.4473 9.14962 20.1636 9.0385 19.7747L7.20601 13.361L2.80391 12.4806C2.37081 12.394 2.04584 12.0335 2.00443 11.5938C1.96303 11.154 2.21501 10.7392 2.62432 10.5733L21.1243 3.07328C21.4693 2.93342 21.8634 2.99676 22.1472 3.23767ZM6.46689 11.1736L8.19614 11.5194C8.56331 11.5929 8.85869 11.8653 8.96155 12.2253L10.2983 16.904L11.6259 14.5144C11.7698 14.2554 12.0211 14.0735 12.3122 14.0178C12.6032 13.9622 12.9039 14.0384 13.1333 14.2261L17.381 17.7015L20.1033 5.64529L6.46689 11.1736Z" fill="#0A58CA"/>
<path fill-rule="evenodd" clip-rule="evenodd" d="M22.0328 4.84641C22.4713 4.57037 22.6263 4.00521 22.39 3.54414C22.1537 3.08307 21.6044 2.8788 21.1243 3.07344L2.62432 10.5734C2.21501 10.7394 1.96303 11.1542 2.00443 11.5939C2.04584 12.0337 2.37081 12.3941 2.80391 12.4808L7.80391 13.4808C8.05513 13.531 8.31604 13.4829 8.53284 13.3464L22.0328 4.84641Z" fill="#0A58CA"/>
<path fill-rule="evenodd" clip-rule="evenodd" d="M22.4755 4.22032C22.5776 3.76793 22.3553 3.30468 21.9385 3.10132C21.5217 2.89796 21.0198 3.00788 20.7261 3.36682L11.7261 14.3668C11.3763 14.7943 11.4393 15.4243 11.8668 15.774L17.3668 20.274C17.635 20.4935 17.9978 20.5584 18.3255 20.4456C18.6532 20.3328 18.8991 20.0584 18.9755 19.7203L22.4755 4.22032Z" fill="#0A58CA"/>
</svg>
